<svg width="25" height="24" viewBox="0 0 25 24" fill="none" xmlns="http://www.w3.org/2000/svg">
<path fill-rule="evenodd" clip-rule="evenodd" d="M10.972 20.8756V20.8706V20.8521V20.8336V20.815V20.7964V20.7777V20.759V20.7403V20.7215V20.7027V20.6839V20.665V20.646V20.6271V20.6081V20.5891V20.57V20.5509V20.5317V20.5126V20.4934V20.4741V20.4548V20.4355V20.4162V20.3968V20.3774V20.3579V20.3384V20.3189V20.2993V20.2797V20.2601V20.2404V20.2207V20.201V20.1813V20.1615V20.1416V20.1218V20.1019V20.0819V20.062V20.042V20.022V20.0019V19.9818V19.9617V19.9416V19.9214V19.9012V19.8809V19.8607V19.8404V19.82V19.7997V19.7793V19.7588V19.7384V19.7179V19.6974V19.6768V19.6563V19.6357V19.615V19.5944V19.5737V19.553V19.5322V19.5114V19.4906V19.4698V19.4489V19.428V19.4071V19.3862V19.3652V19.3442V19.3232V19.3021V19.2811V19.26V19.2388V19.2177V19.1965V19.1753V19.154V19.1328V19.1115V19.0902V19.0689V19.0475V19.0261V19.0047V18.9833V18.9618V18.9403V18.9188V18.8973V18.8757V18.8541V18.8325V18.8109V18.7892V18.7676V18.7459V18.7242V18.7024V18.6806V18.6589V18.6371V18.6152V18.5934V18.5715V18.5496V18.5277V18.5057V18.4838V18.4618V18.4398V18.4178V18.3957V18.3736V18.3516V18.3295V18.3073V18.2852V18.263V18.2408V18.2186V18.1964V18.1742V18.1519V18.1296V18.1073V18.085V18.0627V18.0403V18.0179V17.9956V17.9731V17.9507V17.9283V17.9058V17.8833V17.8608V17.8383V17.8158V17.7933V17.7707V17.7481V17.7255V17.7029V17.6803V17.6577V17.635V17.6123V17.5896V17.5669V17.5442V17.5215V17.4987V17.476V17.4532V17.4304V17.4076V17.3848V17.362V17.3391V17.3163V17.2934V17.2705V17.2476V17.2247V17.2018V17.1788V17.1559V17.1329V17.11V17.087V17.064V17.041V17.0179V16.9949V16.9719V16.9488V16.9258V16.9027V16.8796V16.8565V16.8334V16.8103V16.7871V16.764V16.7409V16.7177V16.6945V16.6714V16.6482V16.625V16.6018V16.5786V16.5554V16.5321V16.5089V16.4856V16.4624V16.4391V16.4159V16.3926V16.3693V16.346V16.3227V16.2994V16.2761V16.2528V16.2295V16.2062V16.1828V16.1595V16.1361V16.1128V16.0894V16.0661V16.0427V16.0193V15.9959V15.9725V15.9492V15.9258V15.9024V15.879V15.8556V15.8322V15.8087V15.7853V15.7619V15.7385V15.7151V15.6916V15.6682V15.6448V15.6213V15.5979V15.5744V15.551V15.5275V15.5041V15.4806V15.4572V15.4337V15.4103V15.3868V15.3634V15.3399V15.3165V15.293V15.2695V15.2461V15.2226V15.1992V15.1757V15.1522V15.1288V15.1053V15.0819V15.0584V15.035V15.0115V14.9881V14.9646V14.9412V14.9177V14.8943V14.8708V14.8474V14.824V14.8005V14.7771V14.7537V14.7302V14.7068V14.6834V14.66V14.6366V14.6132V14.5898V14.5664V14.543V14.5196V14.4962V14.4728V14.4494V14.426V14.4027V14.3793V14.356V14.3326V14.3093V14.2859V14.2626V14.2393V14.216V14.1926V14.1693V14.146V14.1227V14.0995V14.0762V14.0529V14.0296V14.0064V13.9831V13.9599V13.9367V13.9134V13.8902V13.867V13.8438V13.8206V13.7974V13.7743V13.7511V13.728V13.7048V13.6817V13.6586V13.6355V13.6124V13.5893V13.5662V13.5431V13.52V13.497V13.474V13.4509V13.4279V13.4049V13.3819V13.3589V13.336V13.313V13.2901V13.2671V13.2442V13.2213V13.1984V13.1756V13.1527V13.1298V13.107V13.0842V13.0614V13.0386V13.0158V12.993V12.9703V12.9475V12.9248V12.9021V12.8794V12.8567V12.834V12.8114V12.7887V12.7661V12.7435V12.7209V12.6984V12.6758V12.6533V12.6308V12.6082V12.5858V12.5633V12.5408V12.5184V12.496V12.4736V12.4512V12.4288V12.4065V12.3842V12.3619V12.3396V12.3173V12.295V12.2728V12.2506V12.2284V12.2062V12.1841V12.1619V12.1398V12.1177V12.0956V12.0736V12.0515V12.0295V12.0075V11.9856V11.9636V11.9417V11.9198V11.8979V11.876V11.8542V11.8323V11.8105V11.7888V11.767V11.7453V11.7236V11.7019V11.6802V11.6586V11.6369V11.6153V11.5938V11.5722V11.5507V11.5292V11.5077V11.4863V11.4649V11.4435V11.4221V11.4007V11.3794V11.3581V11.3368V11.3156V11.2944V11.2732V11.252V11.2308V11.2097V11.1886V11.1676V11.1465V11.1255V11.1045V11.0836V11.0626V11.0417V11.0208V11V10.9701V10.9402V10.9103V10.8805V10.8507V10.8209V10.7912V10.7615V10.7318V10.7022V10.6726V10.643V10.6135V10.584V10.5546V10.5252V10.4958V10.4664V10.4371V10.4078V10.3786V10.3494V10.3202V10.291V10.2619V10.2329V10.2038V10.1748V10.1459V10.117V10.0881V10.0592V10.0304V10.0016V9.97286V9.94416V9.91548V9.88685V9.85825V9.82969V9.80116V9.77267V9.74422V9.71581V9.68743V9.65909V9.63079V9.60253V9.5743V9.54611V9.51796V9.48985V9.46177V9.43373V9.40573V9.37777V9.34985V9.32196V9.29412V9.26631V9.23854V9.21081V9.18312V9.15547V9.12785V9.10028V9.07274V9.04525V9.01779V8.99037V8.963V8.93566V8.90836V8.8811V8.85388V8.8267V8.79956V8.77246V8.74541V8.71839V8.69141V8.66447V8.63758V8.61072V8.5839V8.55713V8.53039V8.5037V8.47705V8.45044V8.42387V8.39734V8.37086V8.34441V8.31801V8.29165V8.26533V8.23905V8.21281V8.18662V8.16047V8.13436V8.10829V8.08226V8.05628V8.03034V8.00444V7.97859V7.95278V7.92701V7.90128V7.8756V7.84996V7.82437V7.79881V7.7733V7.74784V7.72242V7.69704V7.6717V7.64641V7.62116V7.59596V7.5708V7.54569V7.52062V7.49559V7.47061V7.44568V7.42078V7.39594V7.37113V7.34638V7.32166V7.297V7.27238V7.2478V7.22327V7.19878V7.17434V7.14995V7.1256V7.10129V7.07704V7.05283V7.02866V7.00454V6.98047V6.95644V6.93246V6.90853V6.88464V6.8608V6.83701V6.81326V6.78956V6.76591V6.74231V6.71875V6.69524V6.67177V6.64836V6.62499V6.60167V6.57839V6.55517V6.53199V6.50886V6.48578V6.46275V6.43976V6.41683V6.39394V6.3711V6.34831V6.32557V6.30287V6.28023V6.25763V6.23509V6.21259V6.19014V6.16774V6.14539V6.12309V6.10084V6.07864V6.05649V6.03439V6.01234V5.99034V5.96839V5.94649V5.92463V5.90283V5.88108V5.85939V5.83774V5.81614V5.79459V5.7731V5.75165V5.73026V5.70891V5.68762V5.66638V5.64519V5.62405V5.60297V5.58193V5.56095V5.54002V5.51914V5.49832V5.47754V5.45682V5.43615V5.41553V5.39497V5.37445V5.35399V5.33359V5.31323V5.29293V5.27268V5.25249V5.23234V5.21226V5.19222V5.17224V5.15231V5.13243V5.11261V5.09284V5.07313V5.05347V5.03387V5.01431V4.99482V4.97537V4.95598V4.93665V4.91737V4.89815V4.87898V4.85986V4.8408V4.82179V4.80284V4.78395V4.76511V4.74632V4.72759V4.70892V4.6903V4.67174V4.65323V4.63478V4.61639V4.59805V4.57977V4.56154V4.54337V4.52526V4.5072V4.4892V4.47126V4.45337V4.43554V4.41777V4.40005V4.38239V4.36479V4.34724V4.32976V4.31233V4.29495V4.27764V4.26038V4.24318V4.22604V4.20896V4.19193V4.17497V4.15806V4.14121V4.12442V4.10768V4.09101V4.07439V4.05783V4.04134V4.0249V4.00852V3.99219V3.97593V3.95973V3.94358V3.9275V3.91148V3.89551V3.87961V3.86376V3.84798V3.83225V3.81658V3.80098V3.78543V3.76995V3.75453V3.73916V3.72386V3.70862V3.69344V3.67831V3.66325V3.64826V3.63332V3.61844V3.60363V3.58887V3.57418V3.55955V3.54498V3.53047V3.51603V3.50165V3.48732V3.47307V3.45887V3.44473V3.43066V3.41665V3.4027V3.38882V3.375V3.36124V3.34754V3.33391V3.32034V3.30683V3.29339V3.28V3.26669V3.25343V3.24024V3.22712V3.21405V3.20106V3.18812V3.17525V3.16244V3.1497V3.13702V3.12444C6.71548 3.83855 3.47205 7.54051 3.47205 12C3.47205 16.4595 6.71548 20.1614 10.972 20.8756ZM18.7297 18.4686C17.4505 19.7063 15.8052 20.568 13.972 20.8756V20.8706V20.8521V20.8336V20.815V20.7964V20.7777V20.759V20.7403V20.7215V20.7027V20.6839V20.665V20.646V20.6271V20.6081V20.5891V20.57V20.5509V20.5317V20.5126V20.4934V20.4741V20.4548V20.4355V20.4162V20.3968V20.3774V20.3579V20.3384V20.3189V20.2993V20.2797V20.2601V20.2404V20.2207V20.201V20.1813V20.1615V20.1416V20.1218V20.1019V20.0819V20.062V20.042V20.022V20.0019V19.9818V19.9617V19.9416V19.9214V19.9012V19.8809V19.8607V19.8404V19.82V19.7997V19.7793V19.7588V19.7384V19.7179V19.6974V19.6768V19.6563V19.6357V19.615V19.5944V19.5737V19.553V19.5322V19.5114V19.4906V19.4698V19.4489V19.428V19.4071V19.3862V19.3652V19.3442V19.3232V19.3021V19.2811V19.26V19.2388V19.2177V19.1965V19.1753V19.154V19.1328V19.1115V19.0902V19.0689V19.0475V19.0261V19.0047V18.9833V18.9618V18.9403V18.9188V18.8973V18.8757V18.8541V18.8325V18.8109V18.7892V18.7676V18.7459V18.7242V18.7024V18.6806V18.6589V18.6371V18.6152V18.5934V18.5715V18.5496V18.5277V18.5057V18.4838V18.4618V18.4398V18.4178V18.3957V18.3736V18.3516V18.3295V18.3073V18.2852V18.263V18.2408V18.2186V18.1964V18.1742V18.1519V18.1296V18.1073V18.085V18.0627V18.0403V18.0179V17.9956V17.9731V17.9507V17.9283V17.9058V17.8833V17.8608V17.8383V17.8158V17.7933V17.7707V17.7481V17.7255V17.7029V17.6803V17.6577V17.635V17.6123V17.5896V17.5669V17.5442V17.5215V17.4987V17.476V17.4532V17.4304V17.4076V17.3848V17.362V17.3391V17.3163V17.2934V17.2705V17.2476V17.2247V17.2018V17.1788V17.1559V17.1329V17.11V17.087V17.064V17.041V17.0179V16.9949V16.9719V16.9488V16.9258V16.9027V16.8796V16.8565V16.8334V16.8103V16.7871V16.764V16.7409V16.7177V16.6945V16.6714V16.6482V16.625V16.6018V16.5786V16.5554V16.5321V16.5089V16.4856V16.4624V16.4391V16.4159V16.3926V16.3693V16.346V16.3227V16.2994V16.2761V16.2528V16.2295V16.2062V16.1828V16.1595V16.1361V16.1128V16.0894V16.0661V16.0427V16.0193V15.9959V15.9725V15.9492V15.9258V15.9024V15.879V15.8556V15.8322V15.8087V15.7853V15.7619V15.7385V15.7151V15.6916V15.6682V15.6448V15.6213V15.5979V15.5744V15.551V15.5275V15.5041V15.4806V15.4572V15.4337V15.4103V15.3868V15.3634V15.3399V15.3165V15.293V15.2695V15.2461V15.2226V15.1992V15.1757V15.1522V15.1288V15.1053V15.0819V15.0584V15.035V15.0115V14.9881V14.9646V14.9412V14.9177V14.8943V14.8708V14.8474V14.824V14.8005V14.7771V14.7537V14.7302V14.7068V14.6834V14.66V14.6366V14.6132V14.5898V14.5664V14.543V14.5196V14.4962V14.4728V14.4494V14.426V14.4027V14.3793V14.356V14.3326V14.3093V14.3057L18.7297 18.4686ZM20.5145 16.044L13.972 10.3193V10.291V10.2619V10.2329V10.2038V10.1748V10.1459V10.117V10.0881V10.0592V10.0304V10.0016V9.97286V9.94416V9.91548V9.88685V9.85825V9.82969V9.80116V9.77267V9.74422V9.71581V9.68743V9.65909V9.63079V9.60253V9.5743V9.54611V9.51796V9.48985V9.46177V9.43373V9.40573V9.37777V9.34985V9.32196V9.29412V9.26631V9.23854V9.21081V9.18312V9.15547V9.12785V9.10028V9.07274V9.04525V9.01779V8.99037V8.963V8.93566V8.90836V8.8811V8.85388V8.8267V8.79956V8.77246V8.74541V8.71839V8.69141V8.66447V8.63758V8.61072V8.5839V8.55713V8.53039V8.5037V8.47705V8.45044V8.42387V8.39734V8.37086V8.34441V8.31801V8.29165V8.26533V8.23905V8.21281V8.18662V8.16047V8.13436V8.10829V8.08226V8.05628V8.03034V8.00444V7.97859V7.95278V7.92701V7.90128V7.8756V7.84996V7.82437V7.79881V7.7733V7.74784V7.72242V7.69704V7.6717V7.64641V7.62116V7.59596V7.5708V7.54569V7.52062V7.49559V7.47061V7.44568V7.42078V7.39594V7.37113V7.34638V7.32166V7.297V7.27238V7.2478V7.22327V7.19878V7.17434V7.14995V7.1256V7.10129V7.07704V7.05283V7.02866V7.00454V6.98047V6.95644V6.93246V6.90853V6.88464V6.8608V6.83701V6.81326V6.78956V6.76591V6.74231V6.71875V6.69524V6.67177V6.64836V6.62499V6.60167V6.57839V6.55517V6.53199V6.50886V6.48578V6.46275V6.43976V6.41683V6.39394V6.3711V6.34831V6.32557V6.30287V6.28023V6.25763V6.23509V6.21259V6.19014V6.16774V6.14539V6.12309V6.10084V6.07864V6.05649V6.03439V6.01234V5.99034V5.96839V5.94649V5.92463V5.90283V5.88108V5.85939V5.83774V5.81614V5.79459V5.7731V5.75165V5.73026V5.70891V5.68762V5.66638V5.64519V5.62405V5.60297V5.58193V5.56095V5.54002V5.51914V5.49832V5.47754V5.45682V5.43615V5.41553V5.39497V5.37445V5.35399V5.33359V5.31323V5.29293V5.27268V5.25249V5.23234V5.21226V5.19222V5.17224V5.15231V5.13243V5.11261V5.09284V5.07313V5.05347V5.03387V5.01431V4.99482V4.97537V4.95598V4.93665V4.91737V4.89815V4.87898V4.85986V4.8408V4.82179V4.80284V4.78395V4.76511V4.74632V4.72759V4.70892V4.6903V4.67174V4.65323V4.63478V4.61639V4.59805V4.57977V4.56154V4.54337V4.52526V4.5072V4.4892V4.47126V4.45337V4.43554V4.41777V4.40005V4.38239V4.36479V4.34724V4.32976V4.31233V4.29495V4.27764V4.26038V4.24318V4.22604V4.20896V4.19193V4.17497V4.15806V4.14121V4.12442V4.10768V4.09101V4.07439V4.05783V4.04134V4.0249V4.00852V3.99219V3.97593V3.95973V3.94358V3.9275V3.91148V3.89551V3.87961V3.86376V3.84798V3.83225V3.81658V3.80098V3.78543V3.76995V3.75453V3.73916V3.72386V3.70862V3.69344V3.67831V3.66325V3.64826V3.63332V3.61844V3.60363V3.58887V3.57418V3.55955V3.54498V3.53047V3.51603V3.50165V3.48732V3.47307V3.45887V3.44473V3.43066V3.41665V3.4027V3.38882V3.375V3.36124V3.34754V3.33391V3.32034V3.30683V3.29339V3.28V3.26669V3.25343V3.24024V3.22712V3.21405V3.20106V3.18812V3.17525V3.16244V3.1497V3.13702V3.12444C18.2286 3.83855 21.472 7.54051 21.472 12C21.472 13.4544 21.1271 14.8281 20.5145 16.044ZM24.472 12C24.472 18.6274 19.0995 24 12.472 24C5.84463 24 0.472046 18.6274 0.472046 12C0.472046 5.37258 5.84463 0 12.472 0C19.0995 0 24.472 5.37258 24.472 12Z" fill="#EC502B"/>
</svg>
