<svg width="200" height="49" viewBox="0 0 200 49" fill="none" xmlns="http://www.w3.org/2000/svg">
<path fill-rule="evenodd" clip-rule="evenodd" d="M161.972 34.8756V34.8706V34.8521V34.8336V34.815V34.7964V34.7777V34.759V34.7403V34.7215V34.7027V34.6839V34.665V34.646V34.6271V34.6081V34.5891V34.57V34.5509V34.5317V34.5126V34.4934V34.4741V34.4548V34.4355V34.4162V34.3968V34.3774V34.3579V34.3384V34.3189V34.2993V34.2797V34.2601V34.2404V34.2207V34.201V34.1813V34.1615V34.1416V34.1218V34.1019V34.0819V34.062V34.042V34.022V34.0019V33.9818V33.9617V33.9416V33.9214V33.9012V33.8809V33.8607V33.8404V33.82V33.7997V33.7793V33.7588V33.7384V33.7179V33.6974V33.6768V33.6563V33.6357V33.615V33.5944V33.5737V33.553V33.5322V33.5114V33.4906V33.4698V33.4489V33.428V33.4071V33.3862V33.3652V33.3442V33.3232V33.3021V33.2811V33.26V33.2388V33.2177V33.1965V33.1753V33.154V33.1328V33.1115V33.0902V33.0689V33.0475V33.0261V33.0047V32.9833V32.9618V32.9403V32.9188V32.8973V32.8757V32.8541V32.8325V32.8109V32.7892V32.7676V32.7459V32.7242V32.7024V32.6806V32.6589V32.6371V32.6152V32.5934V32.5715V32.5496V32.5277V32.5057V32.4838V32.4618V32.4398V32.4178V32.3957V32.3736V32.3516V32.3295V32.3073V32.2852V32.263V32.2408V32.2186V32.1964V32.1742V32.1519V32.1296V32.1073V32.085V32.0627V32.0403V32.0179V31.9956V31.9731V31.9507V31.9283V31.9058V31.8833V31.8608V31.8383V31.8158V31.7933V31.7707V31.7481V31.7255V31.7029V31.6803V31.6577V31.635V31.6123V31.5896V31.5669V31.5442V31.5215V31.4987V31.476V31.4532V31.4304V31.4076V31.3848V31.362V31.3391V31.3163V31.2934V31.2705V31.2476V31.2247V31.2018V31.1788V31.1559V31.1329V31.11V31.087V31.064V31.041V31.0179V30.9949V30.9719V30.9488V30.9258V30.9027V30.8796V30.8565V30.8334V30.8103V30.7871V30.764V30.7409V30.7177V30.6945V30.6714V30.6482V30.625V30.6018V30.5786V30.5554V30.5321V30.5089V30.4856V30.4624V30.4391V30.4159V30.3926V30.3693V30.346V30.3227V30.2994V30.2761V30.2528V30.2295V30.2062V30.1828V30.1595V30.1361V30.1128V30.0894V30.0661V30.0427V30.0193V29.9959V29.9725V29.9492V29.9258V29.9024V29.879V29.8556V29.8322V29.8087V29.7853V29.7619V29.7385V29.7151V29.6916V29.6682V29.6448V29.6213V29.5979V29.5744V29.551V29.5275V29.5041V29.4806V29.4572V29.4337V29.4103V29.3868V29.3634V29.3399V29.3165V29.293V29.2695V29.2461V29.2226V29.1992V29.1757V29.1522V29.1288V29.1053V29.0819V29.0584V29.035V29.0115V28.9881V28.9646V28.9412V28.9177V28.8943V28.8708V28.8474V28.824V28.8005V28.7771V28.7537V28.7302V28.7068V28.6834V28.66V28.6366V28.6132V28.5898V28.5664V28.543V28.5196V28.4962V28.4728V28.4494V28.426V28.4027V28.3793V28.356V28.3326V28.3093V28.2859V28.2626V28.2393V28.216V28.1926V28.1693V28.146V28.1227V28.0995V28.0762V28.0529V28.0296V28.0064V27.9831V27.9599V27.9367V27.9134V27.8902V27.867V27.8438V27.8206V27.7974V27.7743V27.7511V27.728V27.7048V27.6817V27.6586V27.6355V27.6124V27.5893V27.5662V27.5431V27.52V27.497V27.474V27.4509V27.4279V27.4049V27.3819V27.3589V27.336V27.313V27.2901V27.2671V27.2442V27.2213V27.1984V27.1756V27.1527V27.1298V27.107V27.0842V27.0614V27.0386V27.0158V26.993V26.9703V26.9475V26.9248V26.9021V26.8794V26.8567V26.834V26.8114V26.7887V26.7661V26.7435V26.7209V26.6984V26.6758V26.6533V26.6308V26.6082V26.5858V26.5633V26.5408V26.5184V26.496V26.4736V26.4512V26.4288V26.4065V26.3842V26.3619V26.3396V26.3173V26.295V26.2728V26.2506V26.2284V26.2062V26.1841V26.1619V26.1398V26.1177V26.0956V26.0736V26.0515V26.0295V26.0075V25.9856V25.9636V25.9417V25.9198V25.8979V25.876V25.8542V25.8323V25.8105V25.7888V25.767V25.7453V25.7236V25.7019V25.6802V25.6586V25.6369V25.6153V25.5938V25.5722V25.5507V25.5292V25.5077V25.4863V25.4649V25.4435V25.4221V25.4007V25.3794V25.3581V25.3368V25.3156V25.2944V25.2732V25.252V25.2308V25.2097V25.1886V25.1676V25.1465V25.1255V25.1045V25.0836V25.0626V25.0417V25.0208V25V24.9701V24.9402V24.9103V24.8805V24.8507V24.8209V24.7912V24.7615V24.7318V24.7022V24.6726V24.643V24.6135V24.584V24.5546V24.5252V24.4958V24.4664V24.4371V24.4078V24.3786V24.3494V24.3202V24.291V24.2619V24.2329V24.2038V24.1748V24.1459V24.117V24.0881V24.0592V24.0304V24.0016V23.9729V23.9442V23.9155V23.8868V23.8582V23.8297V23.8012V23.7727V23.7442V23.7158V23.6874V23.6591V23.6308V23.6025V23.5743V23.5461V23.518V23.4898V23.4618V23.4337V23.4057V23.3778V23.3498V23.322V23.2941V23.2663V23.2385V23.2108V23.1831V23.1555V23.1279V23.1003V23.0727V23.0452V23.0178V22.9904V22.963V22.9357V22.9084V22.8811V22.8539V22.8267V22.7996V22.7725V22.7454V22.7184V22.6914V22.6645V22.6376V22.6107V22.5839V22.5571V22.5304V22.5037V22.4771V22.4504V22.4239V22.3973V22.3709V22.3444V22.318V22.2916V22.2653V22.239V22.2128V22.1866V22.1605V22.1344V22.1083V22.0823V22.0563V22.0303V22.0044V21.9786V21.9528V21.927V21.9013V21.8756V21.85V21.8244V21.7988V21.7733V21.7478V21.7224V21.697V21.6717V21.6464V21.6212V21.596V21.5708V21.5457V21.5206V21.4956V21.4706V21.4457V21.4208V21.3959V21.3711V21.3464V21.3217V21.297V21.2724V21.2478V21.2233V21.1988V21.1743V21.1499V21.1256V21.1013V21.077V21.0528V21.0287V21.0045V20.9805V20.9564V20.9325V20.9085V20.8846V20.8608V20.837V20.8133V20.7896V20.7659V20.7423V20.7187V20.6952V20.6718V20.6484V20.625V20.6017V20.5784V20.5552V20.532V20.5089V20.4858V20.4627V20.4398V20.4168V20.3939V20.3711V20.3483V20.3256V20.3029V20.2802V20.2576V20.2351V20.2126V20.1901V20.1677V20.1454V20.1231V20.1008V20.0786V20.0565V20.0344V20.0123V19.9903V19.9684V19.9465V19.9246V19.9028V19.8811V19.8594V19.8377V19.8161V19.7946V19.7731V19.7517V19.7303V19.7089V19.6876V19.6664V19.6452V19.6241V19.603V19.5819V19.561V19.54V19.5191V19.4983V19.4775V19.4568V19.4361V19.4155V19.395V19.3745V19.354V19.3336V19.3132V19.2929V19.2727V19.2525V19.2323V19.2123V19.1922V19.1722V19.1523V19.1324V19.1126V19.0928V19.0731V19.0535V19.0339V19.0143V18.9948V18.9754V18.956V18.9367V18.9174V18.8981V18.879V18.8599V18.8408V18.8218V18.8028V18.7839V18.7651V18.7463V18.7276V18.7089V18.6903V18.6717V18.6532V18.6348V18.6164V18.5981V18.5798V18.5615V18.5434V18.5253V18.5072V18.4892V18.4713V18.4534V18.4355V18.4178V18.4V18.3824V18.3648V18.3472V18.3298V18.3123V18.295V18.2776V18.2604V18.2432V18.226V18.209V18.1919V18.175V18.1581V18.1412V18.1244V18.1077V18.091V18.0744V18.0578V18.0413V18.0249V18.0085V17.9922V17.9759V17.9597V17.9436V17.9275V17.9115V17.8955V17.8796V17.8638V17.848V17.8322V17.8166V17.801V17.7854V17.7699V17.7545V17.7392V17.7239V17.7086V17.6934V17.6783V17.6633V17.6483V17.6333V17.6184V17.6036V17.5889V17.5742V17.5596V17.545V17.5305V17.516V17.5016V17.4873V17.4731V17.4589V17.4447V17.4307V17.4167V17.4027V17.3888V17.375V17.3612V17.3475V17.3339V17.3203V17.3068V17.2934V17.28V17.2667V17.2534V17.2402V17.2271V17.2141V17.2011V17.1881V17.1752V17.1624V17.1497V17.137V17.1244C157.715 17.8386 154.472 21.5405 154.472 26C154.472 30.4595 157.715 34.1614 161.972 34.8756ZM169.73 32.4686C168.45 33.7063 166.805 34.568 164.972 34.8756V34.8706V34.8521V34.8336V34.815V34.7964V34.7777V34.759V34.7403V34.7215V34.7027V34.6839V34.665V34.646V34.6271V34.6081V34.5891V34.57V34.5509V34.5317V34.5126V34.4934V34.4741V34.4548V34.4355V34.4162V34.3968V34.3774V34.3579V34.3384V34.3189V34.2993V34.2797V34.2601V34.2404V34.2207V34.201V34.1813V34.1615V34.1416V34.1218V34.1019V34.0819V34.062V34.042V34.022V34.0019V33.9818V33.9617V33.9416V33.9214V33.9012V33.8809V33.8607V33.8404V33.82V33.7997V33.7793V33.7588V33.7384V33.7179V33.6974V33.6768V33.6563V33.6357V33.615V33.5944V33.5737V33.553V33.5322V33.5114V33.4906V33.4698V33.4489V33.428V33.4071V33.3862V33.3652V33.3442V33.3232V33.3021V33.2811V33.26V33.2388V33.2177V33.1965V33.1753V33.154V33.1328V33.1115V33.0902V33.0689V33.0475V33.0261V33.0047V32.9833V32.9618V32.9403V32.9188V32.8973V32.8757V32.8541V32.8325V32.8109V32.7892V32.7676V32.7459V32.7242V32.7024V32.6806V32.6589V32.6371V32.6152V32.5934V32.5715V32.5496V32.5277V32.5057V32.4838V32.4618V32.4398V32.4178V32.3957V32.3736V32.3516V32.3295V32.3073V32.2852V32.263V32.2408V32.2186V32.1964V32.1742V32.1519V32.1296V32.1073V32.085V32.0627V32.0403V32.0179V31.9956V31.9731V31.9507V31.9283V31.9058V31.8833V31.8608V31.8383V31.8158V31.7933V31.7707V31.7481V31.7255V31.7029V31.6803V31.6577V31.635V31.6123V31.5896V31.5669V31.5442V31.5215V31.4987V31.476V31.4532V31.4304V31.4076V31.3848V31.362V31.3391V31.3163V31.2934V31.2705V31.2476V31.2247V31.2018V31.1788V31.1559V31.1329V31.11V31.087V31.064V31.041V31.0179V30.9949V30.9719V30.9488V30.9258V30.9027V30.8796V30.8565V30.8334V30.8103V30.7871V30.764V30.7409V30.7177V30.6945V30.6714V30.6482V30.625V30.6018V30.5786V30.5554V30.5321V30.5089V30.4856V30.4624V30.4391V30.4159V30.3926V30.3693V30.346V30.3227V30.2994V30.2761V30.2528V30.2295V30.2062V30.1828V30.1595V30.1361V30.1128V30.0894V30.0661V30.0427V30.0193V29.9959V29.9725V29.9492V29.9258V29.9024V29.879V29.8556V29.8322V29.8087V29.7853V29.7619V29.7385V29.7151V29.6916V29.6682V29.6448V29.6213V29.5979V29.5744V29.551V29.5275V29.5041V29.4806V29.4572V29.4337V29.4103V29.3868V29.3634V29.3399V29.3165V29.293V29.2695V29.2461V29.2226V29.1992V29.1757V29.1522V29.1288V29.1053V29.0819V29.0584V29.035V29.0115V28.9881V28.9646V28.9412V28.9177V28.8943V28.8708V28.8474V28.824V28.8005V28.7771V28.7537V28.7302V28.7068V28.6834V28.66V28.6366V28.6132V28.5898V28.5664V28.543V28.5196V28.4962V28.4728V28.4494V28.426V28.4027V28.3793V28.356V28.3326V28.3093V28.3057L169.73 32.4686ZM171.515 30.044L164.972 24.3193V24.291V24.2619V24.2329V24.2038V24.1748V24.1459V24.117V24.0881V24.0592V24.0304V24.0016V23.9729V23.9442V23.9155V23.8868V23.8582V23.8297V23.8012V23.7727V23.7442V23.7158V23.6874V23.6591V23.6308V23.6025V23.5743V23.5461V23.518V23.4898V23.4618V23.4337V23.4057V23.3778V23.3498V23.322V23.2941V23.2663V23.2385V23.2108V23.1831V23.1555V23.1279V23.1003V23.0727V23.0452V23.0178V22.9904V22.963V22.9357V22.9084V22.8811V22.8539V22.8267V22.7996V22.7725V22.7454V22.7184V22.6914V22.6645V22.6376V22.6107V22.5839V22.5571V22.5304V22.5037V22.4771V22.4504V22.4239V22.3973V22.3709V22.3444V22.318V22.2916V22.2653V22.239V22.2128V22.1866V22.1605V22.1344V22.1083V22.0823V22.0563V22.0303V22.0044V21.9786V21.9528V21.927V21.9013V21.8756V21.85V21.8244V21.7988V21.7733V21.7478V21.7224V21.697V21.6717V21.6464V21.6212V21.596V21.5708V21.5457V21.5206V21.4956V21.4706V21.4457V21.4208V21.3959V21.3711V21.3464V21.3217V21.297V21.2724V21.2478V21.2233V21.1988V21.1743V21.1499V21.1256V21.1013V21.077V21.0528V21.0287V21.0045V20.9805V20.9564V20.9325V20.9085V20.8846V20.8608V20.837V20.8133V20.7896V20.7659V20.7423V20.7187V20.6952V20.6718V20.6484V20.625V20.6017V20.5784V20.5552V20.532V20.5089V20.4858V20.4627V20.4398V20.4168V20.3939V20.3711V20.3483V20.3256V20.3029V20.2802V20.2576V20.2351V20.2126V20.1901V20.1677V20.1454V20.1231V20.1008V20.0786V20.0565V20.0344V20.0123V19.9903V19.9684V19.9465V19.9246V19.9028V19.8811V19.8594V19.8377V19.8161V19.7946V19.7731V19.7517V19.7303V19.7089V19.6876V19.6664V19.6452V19.6241V19.603V19.5819V19.561V19.54V19.5191V19.4983V19.4775V19.4568V19.4361V19.4155V19.395V19.3745V19.354V19.3336V19.3132V19.2929V19.2727V19.2525V19.2323V19.2123V19.1922V19.1722V19.1523V19.1324V19.1126V19.0928V19.0731V19.0535V19.0339V19.0143V18.9948V18.9754V18.956V18.9367V18.9174V18.8981V18.879V18.8599V18.8408V18.8218V18.8028V18.7839V18.7651V18.7463V18.7276V18.7089V18.6903V18.6717V18.6532V18.6348V18.6164V18.5981V18.5798V18.5615V18.5434V18.5253V18.5072V18.4892V18.4713V18.4534V18.4355V18.4178V18.4V18.3824V18.3648V18.3472V18.3298V18.3123V18.295V18.2776V18.2604V18.2432V18.226V18.209V18.1919V18.175V18.1581V18.1412V18.1244V18.1077V18.091V18.0744V18.0578V18.0413V18.0249V18.0085V17.9922V17.9759V17.9597V17.9436V17.9275V17.9115V17.8955V17.8796V17.8638V17.848V17.8322V17.8166V17.801V17.7854V17.7699V17.7545V17.7392V17.7239V17.7086V17.6934V17.6783V17.6633V17.6483V17.6333V17.6184V17.6036V17.5889V17.5742V17.5596V17.545V17.5305V17.516V17.5016V17.4873V17.4731V17.4589V17.4447V17.4307V17.4167V17.4027V17.3888V17.375V17.3612V17.3475V17.3339V17.3203V17.3068V17.2934V17.28V17.2667V17.2534V17.2402V17.2271V17.2141V17.2011V17.1881V17.1752V17.1624V17.1497V17.137V17.1244C169.229 17.8386 172.472 21.5405 172.472 26C172.472 27.4544 172.127 28.8281 171.515 30.044ZM175.472 26C175.472 32.6274 170.099 38 163.472 38C156.845 38 151.472 32.6274 151.472 26C151.472 19.3726 156.845 14 163.472 14C170.099 14 175.472 19.3726 175.472 26Z" fill="#EC502B"/>
<path d="M96.128 24.056V21.104H86.696C86.936 18.872 86.96 16.664 86.984 14.696H83.864C83.84 16.664 83.864 18.848 83.624 21.104H74.888V24.056H83.144C82.208 28.184 79.928 32.168 74.432 34.616C75.272 35.216 76.112 36.248 76.568 37.04C81.656 34.592 84.248 30.848 85.544 26.84C87.416 31.472 90.2 34.976 94.544 37.016C95 36.2 95.936 34.928 96.656 34.328C92.168 32.504 89.264 28.736 87.68 24.056H96.128Z" fill="#EC502B"/>
<path d="M117.176 24.344V25.952H114.608V24.344H117.176ZM114.608 29.816V28.16H117.176V29.816H114.608ZM109.472 29.816V28.16H111.872V29.816H109.472ZM111.872 24.344V25.952H109.472V24.344H111.872ZM120.632 20.264V17.672H119.36L120.224 16.832C119.504 16.112 118.088 15.176 116.888 14.6L115.304 16.112C116.072 16.52 116.96 17.096 117.656 17.672H114.608V14.672H111.872V17.672H106.28V20.264H111.872V21.944H106.808V24.512L105.248 23.384C104.984 23.984 104.48 24.824 104.072 25.496L103.592 24.944V24.848C104.504 23.144 105.32 21.32 105.896 19.52L104.408 18.632L103.952 18.728H102.416L104.336 17.744C103.952 16.928 103.112 15.728 102.368 14.816L100.088 15.848C100.712 16.712 101.456 17.888 101.84 18.728H98.72V21.2H102.704C101.552 23.984 99.728 26.864 97.88 28.592C98.312 29 99.032 30.32 99.296 30.968C99.848 30.392 100.448 29.672 101.024 28.904V36.968H103.592V28.208C104.12 29.024 104.6 29.84 104.912 30.416L106.424 28.52C106.208 28.256 105.704 27.56 105.128 26.864C105.632 26.264 106.184 25.52 106.808 24.824V37.064H109.472V32.024H111.872V36.896H114.608V32.024H117.176V34.232C117.176 34.472 117.104 34.544 116.864 34.544C116.624 34.568 115.952 34.568 115.328 34.544C115.64 35.216 115.952 36.296 116.048 37.016C117.344 37.016 118.256 36.968 118.952 36.56C119.696 36.104 119.888 35.432 119.888 34.28V21.944H114.608V20.264H120.632Z" fill="#EC502B"/>
<path d="M132.152 19.064H128.744V14.696H126.104V19.064H122.744V32.168H124.904V21.584H126.104V37.088H128.744V21.584H130.016V29.456C130.016 29.648 129.968 29.696 129.8 29.696H128.84C129.152 30.368 129.416 31.472 129.44 32.168C130.352 32.168 130.976 32.12 131.528 31.664C132.056 31.232 132.152 30.488 132.152 29.528V19.064ZM140.96 33.104H135.896V27.416H140.96V33.104ZM144.632 21.272V18.632H139.28V14.72H136.52V24.824H133.304V36.944H135.896V35.696H140.96V36.92H143.672V24.824H139.28V21.272H144.632Z" fill="#EC502B"/>
<path d="M39.056 26.72H41.744V28.184H39.056V26.72ZM48.296 28.184H44.408V26.72H47.36V24.632H44.408V23.36H41.744V24.632H39.056V23.36H36.464V24.632H33.56V26.72H36.464V28.184H32.72V30.272H36.992C35.96 30.992 34.424 31.64 32.936 32.096C33.56 32.48 34.568 33.344 35.072 33.824C36.656 33.152 38.6 32.024 39.8 30.92L37.952 30.272H42.656L41.24 31.208C42.704 31.928 44.24 32.984 45.104 33.704L47.648 32.528C46.712 31.856 45.176 30.992 43.736 30.272H48.296V28.184ZM45.368 17.24V18.32H43.16V17.24H45.368ZM46.304 23.024C46.952 23.024 47.672 22.976 48.056 22.856C47.984 22.328 47.912 21.536 47.864 20.936C47.48 21.056 46.688 21.08 46.232 21.08H43.76C43.256 21.08 43.16 20.84 43.16 20.192V20.048H47.768V15.488H40.928V20.144C40.928 22.208 41.432 23.024 43.616 23.024H46.304ZM37.736 17.216V18.296H35.552V17.216H37.736ZM35.552 21.176V20.024H40.112V15.464H33.344V20.048C33.344 21.008 32.936 21.416 32.552 21.608C32.912 22.112 33.368 23.144 33.488 23.72C33.944 23.48 34.736 23.312 39.512 22.568C39.56 22.064 39.752 21.152 39.968 20.576L35.552 21.176ZM31.76 18.776C31.4 17.696 30.776 16.04 30.32 14.744L27.728 15.44C28.16 16.76 28.784 18.512 29.096 19.616L31.76 18.776ZM31.064 25.472L30.656 25.544H30.392C30.944 23.864 31.52 21.944 32 20.264H26.456V22.808H28.544C27.992 24.68 27.392 26.6 26.864 28.016H29.768C29.36 29.72 28.664 31.448 27.728 32.72C27.176 33.176 26.576 33.776 26 34.472L27.896 37.184C28.496 35.816 29.36 34.184 29.888 34.184C30.392 34.184 31.256 34.976 32.24 35.528C33.992 36.536 36.008 36.8 39.176 36.8C41.984 36.8 46.232 36.632 48.2 36.512C48.248 35.744 48.704 34.352 49.016 33.584C46.352 33.968 42.08 34.208 39.32 34.208C36.536 34.208 34.28 34.064 32.624 33.08C31.904 32.648 31.4 32.264 30.968 32C31.808 30.272 32.36 28.208 32.696 26.144L31.064 25.472Z" fill="#2584A3"/>
<path d="M54.632 30.008C54.68 29.456 54.704 28.952 54.704 28.448H58.64V30.008H54.632ZM58.64 24.68V26.336H54.704V24.68H58.64ZM61.4 22.448H52.136V27.944C52.136 30.296 51.992 33.32 50.504 35.48C51.08 35.768 52.208 36.632 52.64 37.088C53.6 35.72 54.152 33.92 54.416 32.096H58.64V34.232C58.64 34.52 58.544 34.616 58.256 34.616C57.944 34.64 56.984 34.64 56.096 34.592C56.456 35.24 56.864 36.296 57.008 37.016C58.472 37.016 59.576 36.968 60.344 36.56C61.16 36.152 61.4 35.48 61.4 34.256V22.448ZM68.24 33.896C68.24 34.232 68.12 34.328 67.736 34.328C67.328 34.352 66.08 34.352 64.856 34.304C65.288 35.048 65.744 36.224 65.888 36.992C67.616 37.016 68.912 36.944 69.824 36.512C70.784 36.056 71.048 35.36 71.048 33.944V22.016H68.24V33.896ZM66.08 22.688H63.464V32.48H66.08V22.688ZM67.448 18.224C68.048 17.384 68.696 16.448 69.272 15.512L66.176 14.6C65.696 15.704 64.928 17.12 64.208 18.224H57.536L58.856 17.768C58.448 16.856 57.488 15.56 56.624 14.648L53.912 15.584C54.584 16.376 55.28 17.408 55.712 18.224H50.6V20.792H72.32V18.224H67.448Z" fill="#2584A3"/>
</svg>
